<?xml version="1.0" standalone="no"?><!DOCTYPE svg PUBLIC "-//W3C//DTD SVG 1.1//EN" "http://www.w3.org/Graphics/SVG/1.1/DTD/svg11.dtd" ><svg xmlns="http://www.w3.org/2000/svg"><metadata></metadata><defs><font id="Founder:ZHSRXT-GBK	Regular" horiz-adv-x="256"><font-face font-family="ZHSRXT-GBK" font-weight="400" font-stretch="normal" units-per-em="256" panose-1="2 0 0 0 0 0 0 0 0 0" ascent="229" descent="-67" x-height="0" bbox="9 -22 257 205" underline-thickness="12" underline-position="-55" unicode-range="U+4e00-8bc8" /><missing-glyph horiz-adv-x="256" d="M45 43 l-12 0 l-4 147 l20 0 l-4 -147 ZM30 -9 l0 21 l18 0 l0 -21 l-18 0 Z" /><glyph glyph-name="uni4E00" unicode="&#x4e00;" d="M20 109 l221 0 l0 -9 l-221 0 l0 9 Z" /><glyph glyph-name="uni4E03" unicode="&#x4e03;" d="M231 39 l-4 -57 l-128 0 l0 122 l-82 -9 l0 10 l82 9 l0 81 l10 0 l0 -80 l126 13 l0 -10 l-126 -13 l0 -114 l108 0 l4 54 l10 -6 Z" /><glyph glyph-name="uni4E09" unicode="&#x4e09;" d="M43 97 l171 0 l0 -9 l-171 0 l0 9 ZM34 177 l189 0 l0 -10 l-189 0 l0 10 ZM18 5 l220 0 l0 -9 l-220 0 l0 9 Z" /><glyph glyph-name="uni4E5D" unicode="&#x4e5d;" d="M234 43 l0 -59 l-49 0 l6 162 l-92 0 l-63 -164 l-10 0 l63 164 l-64 0 l0 10 l67 0 l11 39 l10 0 l-10 -39 l98 0 l-5 -163 l28 0 l0 60 l10 -10 Z" /><glyph glyph-name="uni4E8C" unicode="&#x4e8c;" d="M34 160 l0 9 l183 0 l0 -9 l-183 0 ZM19 14 l220 0 l0 -9 l-220 0 l0 9 Z" /><glyph glyph-name="uni4E94" unicode="&#x4e94;" d="M112 173 l-9 -59 l102 0 l0 -115 l37 0 l0 -9 l-226 0 l0 9 l58 0 l17 106 l-59 0 l0 9 l61 0 l9 59 l-75 0 l0 9 l204 0 l0 -9 l-119 0 ZM101 105 l-17 -106 l111 0 l0 106 l-94 0 Z" /><glyph glyph-name="uni4EA4" unicode="&#x4ea4;" d="M212 -14 l-91 77 l-92 -77 l-15 0 l99 83 l-52 44 l14 0 l46 -38 l45 39 l15 0 l-53 -45 l99 -83 l-15 0 ZM12 174 l211 0 l0 -9 l-211 0 l0 9 ZM82 141 l-59 -54 l0 12 l59 54 l0 -12 ZM156 155 l60 -55 l0 -13 l-60 55 l0 13 ZM118 199 l16 -21 l-13 0 l-15 21 l12 0 Z" /><glyph glyph-name="uni5168" unicode="&#x5168;" d="M134 112 l0 -48 l79 0 l0 -9 l-79 0 l0 -63 l99 0 l0 -9 l-208 0 l0 9 l99 0 l0 63 l-77 0 l0 9 l77 0 l0 48 l-83 0 l0 9 l175 0 l0 -9 l-82 0 ZM20 136 l0 10 l108 51 l108 -51 l0 -10 l-108 51 l-108 -51 Z" /><glyph glyph-name="uni516B" unicode="&#x516b;" d="M151 182 l89 -194 l-10 0 l-90 194 l11 0 ZM117 182 l-89 -194 l-11 0 l90 194 l10 0 Z" /><glyph glyph-name="uni516D" unicode="&#x516d;" d="M22 130 l217 0 l0 -9 l-217 0 l0 9 ZM98 96 l-60 -109 l-11 0 l60 109 l11 0 ZM231 -13 l-61 110 l-11 0 l61 -110 l11 0 ZM124 189 l19 -48 l-11 0 l-19 48 l11 0 Z" /><glyph glyph-name="uni5237" unicode="&#x5237;" d="M15 -16 l8 53 l0 146 l132 0 l0 -50 l-123 0 l0 -96 l-8 -53 l-9 0 ZM32 175 l0 -33 l114 0 l0 33 l-114 0 ZM97 97 l0 30 l10 0 l0 -30 l46 0 l0 -99 l-28 0 l-2 8 l20 0 l0 83 l-36 0 l0 -105 l-10 0 l0 105 l-33 0 l0 -89 l-10 0 l0 97 l43 0 ZM174 -6 l46 0 l0 197 l10 0 l0 -207 l-51 0 l-5 10 ZM190 182 l0 -151 l-10 0 l0 151 l10 0 Z" /><glyph glyph-name="uni52A8" unicode="&#x52a8;" d="M177 194 l-1 -37 l58 0 l0 -2 l-4 -170 l-54 0 l-5 9 l49 0 l4 154 l-49 0 l-43 -165 l-9 0 l42 165 l-49 0 l0 9 l50 0 l1 37 l10 0 ZM117 109 l0 -9 l-52 0 l-34 -91 l73 0 l-22 55 l11 0 l25 -64 l-102 0 l39 100 l-38 0 l0 9 l100 0 ZM22 160 l0 9 l87 0 l0 -9 l-87 0 Z" /><glyph glyph-name="uni52BF" unicode="&#x52bf;" d="M124 40 l-90 -61 l0 11 l74 50 l-83 0 l0 9 l91 0 l4 23 l10 0 l-4 -23 l97 0 l-7 -67 l-68 0 l-5 9 l64 0 l5 49 l-88 0 ZM120 143 l17 -11 l17 27 l-39 0 l0 9 l40 0 l0 26 l10 0 l0 -26 l61 0 l0 -1 l-10 -85 l24 0 l-6 -10 l-29 0 l0 1 l10 86 l-50 0 l-20 -32 l42 -26 l0 -12 l-47 30 l-31 -47 l-11 0 l34 52 l-12 7 l0 12 ZM25 118 l31 7 l0 34 l-32 0 l0 9 l32 0 l0 26 l10 0 l0 -26 l37 0 l0 -9 l-37 0 l0 -32 l38 6 l0 -9 l-38 -6 l0 -47 l-32 0 l-5 9 l27 0 l0 36 l-31 -7 l0 9 Z" /><glyph glyph-name="uni5355" unicode="&#x5355;" d="M86 176 l-18 18 l12 0 l19 -18 l-13 0 ZM155 172 l21 22 l13 0 l-22 -22 l51 0 l0 -117 l-86 0 l0 -32 l103 0 l0 -9 l-103 0 l0 -31 l-10 0 l0 31 l-101 0 l0 9 l101 0 l0 32 l-83 0 l-1 0 l0 117 l117 0 ZM48 118 l74 0 l0 45 l-74 0 l0 -45 ZM132 118 l76 0 l0 45 l-76 0 l0 -45 ZM122 109 l-74 0 l0 -45 l74 0 l0 45 ZM208 109 l-76 0 l0 -45 l76 0 l0 45 Z" /><glyph glyph-name="uni56DB" unicode="&#x56db;" d="M156 62 l43 0 l-7 -9 l-46 0 l0 121 l-36 0 l-31 -129 l-10 0 l31 129 l-62 0 l0 -180 l179 0 l0 180 l-61 0 l0 -112 ZM227 -15 l-199 0 l0 198 l199 0 l0 -198 Z" /><glyph glyph-name="uni5A01" unicode="&#x5a01;" d="M15 -18 l12 66 l10 0 l-12 -66 l-10 0 ZM37 48 l-10 0 l0 124 l137 0 l-2 24 l10 0 l2 -24 l57 0 l0 -10 l-56 0 l8 -107 l37 63 l11 0 l-47 -80 l39 -36 l0 44 l10 -7 l0 -59 l-55 49 l-26 -43 l-12 0 l34 54 l-9 122 l-128 0 l0 -114 ZM221 175 l-26 19 l0 11 l26 -20 l0 -10 ZM76 51 l28 -8 l33 47 l-49 0 l-12 -39 ZM113 40 l33 -11 l0 -10 l-38 13 l-30 -42 l-12 0 l32 45 l-34 10 l14 45 l-31 0 l0 10 l34 0 l8 29 l10 0 l-7 -29 l64 0 l-43 -60 ZM59 138 l88 0 l0 -9 l-88 0 l0 9 Z" /><glyph glyph-name=".notdef" unicode="&#x5b89;" d="M108 145 l-19 -38 l148 0 l0 -9 l-41 0 l0 -46 l-59 -25 l97 -33 l0 -11 l-108 37 l-103 -38 l0 10 l92 35 l-65 25 l23 46 l-54 0 l0 9 l59 0 l19 38 l11 0 ZM84 98 l-20 -42 l62 -22 l60 24 l0 40 l-102 0 ZM127 196 l13 -19 l91 0 l0 -1 l0 -43 l-10 0 l0 35 l-184 0 l0 -35 l-10 0 l0 44 l101 0 l-13 19 l12 0 Z" /><glyph glyph-name=".notdef" unicode="&#x6001;" d="M100 128 l29 -37 l-13 0 l-23 30 l-69 -63 l0 13 l94 84 l-95 0 l0 9 l98 0 l0 27 l10 0 l0 -27 l100 0 l0 -9 l-99 0 l-32 -27 ZM192 34 l0 -50 l-119 0 l0 73 l10 0 l0 -64 l99 0 l0 48 l10 -7 ZM230 58 l-98 85 l0 12 l98 -84 l0 -13 ZM209 60 l34 -76 l-11 0 l-35 76 l12 0 ZM48 58 l-29 -73 l11 0 l29 73 l-11 0 ZM125 60 l23 -38 l-12 0 l-23 38 l12 0 Z" /><glyph glyph-name=".notdef" unicode="&#x611f;" d="M133 142 l0 -9 l-69 0 l0 9 l69 0 ZM133 65 l-70 0 l0 47 l70 0 l0 -47 ZM123 74 l0 28 l-50 0 l0 -28 l50 0 ZM192 30 l0 -47 l-120 0 l0 61 l10 0 l0 -52 l100 0 l0 46 l10 -8 ZM208 46 l35 -63 l-11 0 l-35 63 l11 0 ZM58 45 l-29 -60 l-11 0 l29 60 l11 0 ZM136 53 l23 -35 l-12 0 l-23 35 l12 0 ZM36 66 l-10 0 l10 0 ZM147 169 l-9 23 l10 0 l9 -23 l79 0 l0 -10 l-75 0 l19 -45 l52 41 l0 -12 l-46 -37 l39 -30 l0 42 l10 -7 l0 -56 l-55 42 l-19 -35 l-11 0 l23 43 l-22 54 l-107 0 l0 -53 l-8 -40 l-10 0 l8 41 l0 62 l113 0 ZM220 177 l-47 8 l0 9 l47 -8 l0 -9 Z" /><glyph glyph-name=".notdef" unicode="&#x6613;" d="M40 188 l177 0 l2 0 l0 -81 l-179 0 l0 72 l0 9 ZM122 69 l-80 -81 l-13 0 l80 81 l-54 0 l-23 -34 l-11 0 l41 62 l12 0 l-12 -18 l165 0 l-3 -94 l-69 0 l-5 9 l64 0 l3 75 l-40 0 l-73 -82 l-13 0 l74 82 l-43 0 ZM50 116 l159 0 l0 29 l-159 0 l0 -29 ZM209 179 l-159 0 l0 -25 l159 0 l0 25 Z" /><glyph glyph-name=".notdef" unicode="&#x6886;" d="M69 124 l22 -51 l-11 0 l-22 51 l11 0 ZM12 143 l0 10 l34 0 l0 38 l10 0 l0 -38 l28 0 l0 -10 l-28 0 l0 -160 l-10 0 l0 149 l-27 -103 l-10 0 l30 114 l-27 0 ZM122 191 l10 0 l0 -40 l29 0 l0 -9 l-29 0 l0 -40 l31 0 l0 -9 l-31 0 l0 -46 l31 0 l0 -9 l-31 0 l-28 -54 l-10 0 l28 54 l-42 0 l0 9 l42 0 l0 46 l-31 0 l0 9 l31 0 l0 40 l-29 0 l0 9 l29 0 l0 40 ZM194 5 l27 0 l0 105 l10 0 l0 -114 l-28 0 l-9 9 ZM237 181 l-23 -71 l-11 0 l20 62 l-40 0 l0 -188 l-10 0 l0 198 l64 0 l0 -1 Z" /><glyph glyph-name=".notdef" unicode="&#x6b3a;" d="M237 179 l-9 -68 l-10 0 l8 59 l-69 0 l-14 -64 l-10 0 l18 85 l11 0 l-2 -12 l77 0 ZM149 -16 l42 79 l2 80 l-10 0 l-2 -76 l-44 -83 l12 0 ZM228 -16 l-42 69 l11 0 l43 -69 l-12 0 ZM105 25 l22 -41 l-11 0 l-22 41 l-79 0 l0 9 l16 0 l0 128 l-14 0 l0 9 l14 0 l0 22 l10 0 l0 -22 l65 0 l0 22 l10 0 l0 -22 l16 0 l0 -9 l-16 0 l0 -128 l20 0 l0 -9 l-31 0 ZM106 74 l-65 0 l0 -40 l65 0 l0 40 ZM41 129 l65 0 l0 33 l-65 0 l0 -33 ZM41 83 l65 0 l0 37 l-65 0 l0 -37 ZM40 22 l-21 -38 l11 0 l21 38 l-11 0 Z" /><glyph glyph-name=".notdef" unicode="&#x77e5;" d="M143 -9 l0 189 l93 0 l0 -189 l-93 0 ZM226 0 l0 171 l-73 0 l0 -171 l73 0 ZM75 88 l-46 -101 l-11 0 l46 101 l-50 0 l0 9 l53 0 l2 65 l-37 0 l-8 -38 l-10 0 l15 66 l10 0 l-4 -19 l94 0 l0 -9 l-50 0 l-2 -65 l53 0 l0 -9 l-55 0 ZM85 76 l48 -89 l-12 0 l-47 89 l11 0 Z" /><glyph glyph-name=".notdef" unicode="&#x7968;" d="M160 182 l0 -25 l60 0 l0 -48 l-185 0 l0 48 l59 0 l0 25 l-71 0 l0 9 l209 0 l0 -9 l-72 0 ZM78 -7 l47 0 l0 50 l-104 0 l0 9 l212 0 l0 -9 l-98 0 l0 -59 l-51 0 l-6 9 ZM160 148 l0 -30 l50 0 l0 30 l-50 0 ZM94 118 l0 30 l-49 0 l0 -30 l49 0 ZM151 118 l0 30 l-47 0 l0 -30 l47 0 ZM34 85 l184 0 l0 -9 l-184 0 l0 9 ZM151 157 l0 25 l-47 0 l0 -25 l47 0 ZM179 34 l32 -54 l11 0 l-33 54 l-10 0 ZM72 35 l-33 -54 l-10 0 l32 54 l11 0 Z" /><glyph glyph-name=".notdef" unicode="&#x79fb;" d="M166 42 l19 -18 l47 45 l-68 0 l-43 -42 l0 12 l65 67 l0 -13 l-13 -15 l75 0 l0 -7 l-98 -93 l0 13 l28 27 l-26 24 l14 0 ZM153 147 l17 -16 l36 36 l-55 0 l-42 -47 l0 14 l56 65 l0 -14 l-7 -9 l64 0 l0 -7 l-92 -91 l0 13 l33 34 l-23 22 l13 0 ZM79 99 l27 -58 l-11 0 l-27 58 l11 0 ZM66 -16 l-10 0 l0 118 l-34 -90 l-10 0 l41 107 l-36 0 l0 9 l39 0 l0 44 l-38 -4 l0 9 l82 9 l0 -9 l-34 -4 l0 -45 l36 0 l0 -9 l-36 0 l0 -135 Z" /><glyph glyph-name=".notdef" unicode="&#x80c1;" d="M173 191 l-2 -25 l52 0 l0 -182 l-60 0 l-5 9 l54 0 l0 164 l-44 0 l-48 -172 l-10 0 l47 172 l-54 0 l0 9 l58 0 l2 25 l10 0 ZM231 134 l15 -67 l11 0 l-15 67 l-11 0 ZM126 132 l-17 -65 l-10 0 l17 65 l10 0 ZM76 61 l-37 0 l0 -10 l-11 -71 l-10 0 l11 72 l0 135 l56 0 l0 -9 l0 -196 l-36 0 l-5 9 l32 0 l0 70 ZM39 127 l37 0 l0 51 l-37 0 l0 -51 ZM39 70 l37 0 l0 48 l-37 0 l0 -48 Z" /><glyph glyph-name=".notdef" unicode="&#x8bc8;" d="M74 150 l-41 45 l0 -14 l41 -45 l0 14 ZM40 -1 l6 5 l0 104 l-29 0 l0 9 l38 0 l0 0 l1 0 l0 -105 l38 31 l0 -12 l-54 -43 l0 11 ZM151 52 l82 0 l0 -9 l-82 0 l0 -63 l-10 0 l0 176 l-25 0 l-31 -64 l-10 0 l50 104 l10 0 l-15 -31 l119 0 l0 -9 l-88 0 l0 -47 l82 0 l0 -9 l-82 0 l0 -48 Z" /></font>
</defs>
</svg>
